<svg viewBox="0 0 200 241" fill="none" xmlns="http://www.w3.org/2000/svg"><path opacity=".3" d="M139.67 49.25a20.642 20.642 0 0 1-20.62-20.62V0H26.91A26.91 26.91 0 0 0 0 26.91v162.22A26.91 26.91 0 0 0 26.91 216h110.6a26.917 26.917 0 0 0 24.871-16.61 26.905 26.905 0 0 0 2.049-10.3V49.21l-24.76.04Z" fill="#00C650"/><path d="M164.43 49.25h-24.76a20.642 20.642 0 0 1-20.62-20.62V0l45.38 49.25ZM183.94 170.61H58.9c-8.87 0-16.06 7.19-16.06 16.06v37.28c0 8.87 7.19 16.06 16.06 16.06h125.04c8.87 0 16.06-7.19 16.06-16.06v-37.28c0-8.87-7.19-16.06-16.06-16.06Z" fill="#00C650"/><path d="M80.49 213.12v7.25H73v-7.25h7.49ZM107.4 193.14a13.707 13.707 0 0 1 4.85 8.13h-7.66A7 7 0 0 0 102 198a7.282 7.282 0 0 0-4.17-1.19 6.376 6.376 0 0 0-5.12 2.33 9.39 9.39 0 0 0-1.95 6.23 9.3 9.3 0 0 0 1.95 6.2 6.378 6.378 0 0 0 5.12 2.31 7.282 7.282 0 0 0 4.17-1.19 7 7 0 0 0 2.61-3.22h7.66a13.81 13.81 0 0 1-4.85 8.11 14.533 14.533 0 0 1-9.46 3 14.91 14.91 0 0 1-7.67-1.93 13 13 0 0 1-5.1-5.4 16.92 16.92 0 0 1-1.8-7.91 16.93 16.93 0 0 1 1.8-7.92 13 13 0 0 1 5.1-5.4 14.91 14.91 0 0 1 7.67-1.93 14.592 14.592 0 0 1 9.44 3.05ZM136.63 216.3a8.58 8.58 0 0 1-3.56 3.18 12.569 12.569 0 0 1-5.7 1.18 13.448 13.448 0 0 1-8.3-2.45 8.935 8.935 0 0 1-3.56-6.86h7.71a3.998 3.998 0 0 0 1.21 2.66 3.709 3.709 0 0 0 2.65 1 3.112 3.112 0 0 0 2.2-.76 2.694 2.694 0 0 0 .8-2 2.63 2.63 0 0 0-.74-1.9 5.713 5.713 0 0 0-1.84-1.25c-.74-.33-1.75-.72-3.05-1.17a37.286 37.286 0 0 1-4.64-1.88 8.552 8.552 0 0 1-3.09-2.71 7.85 7.85 0 0 1-1.29-4.68 7.908 7.908 0 0 1 1.35-4.62 8.73 8.73 0 0 1 3.75-3 13.758 13.758 0 0 1 5.49-1c2.841-.15 5.646.687 7.94 2.37a8.99 8.99 0 0 1 3.32 6.52h-7.83a4.085 4.085 0 0 0-1.08-2.35 3.203 3.203 0 0 0-1.086-.676 3.202 3.202 0 0 0-1.264-.194 3 3 0 0 0-2.06.68 2.502 2.502 0 0 0-.78 2 2.494 2.494 0 0 0 .7 1.8 5.15 5.15 0 0 0 1.76 1.21c.7.31 1.72.71 3 1.19a33.602 33.602 0 0 1 4.71 1.92 9.068 9.068 0 0 1 3.13 2.78 7.942 7.942 0 0 1 1.31 4.74 8.298 8.298 0 0 1-1.16 4.27ZM147.44 190.43l7.33 22.53 7.33-22.53h7.75l-10.42 29.94h-9.36l-10.38-29.94h7.75Z" fill="#fff"/><path d="M118.89 150.8H45.54c-6.35 0-11.51-6.32-11.51-14.1V83.51c0-7.77 5.16-14.09 11.51-14.09h73.35c6.35 0 11.51 6.32 11.51 14.09v53.19c0 7.78-5.16 14.1-11.51 14.1ZM45.54 76.62c-3.1 0-5.63 3.09-5.63 6.89v53.19c0 3.8 2.53 6.89 5.63 6.89h73.35c3.1 0 5.62-3.09 5.62-6.89V83.51c0-3.8-2.52-6.89-5.62-6.89H45.54Z" fill="#00C650"/><path d="M127.46 118.77H36.97v7.21h90.49v-7.21ZM127.46 94.05H36.97v7.21h90.49v-7.21Z" fill="#00C650"/><path d="M104.29 73.02h-7.21v74.17h7.21V73.02ZM67.35 73.02h-7.21v74.17h7.21V73.02Z" fill="#00C650"/></svg>
