<svg viewBox="0 0 201 241" fill="none" xmlns="http://www.w3.org/2000/svg"><path opacity=".3" d="M140.38 50.06a20.641 20.641 0 0 1-20.62-20.62V.81H27.63A26.91 26.91 0 0 0 .71 27.72v162.22a26.905 26.905 0 0 0 16.619 24.864 26.912 26.912 0 0 0 10.301 2.046h110.6a26.907 26.907 0 0 0 26.91-26.91V50.06h-24.76Z" fill="#00C650"/><path d="M165.14 50.06h-24.76a20.641 20.641 0 0 1-20.62-20.62V.81l45.38 49.25ZM184.65 171.42H59.61c-8.87 0-16.06 7.19-16.06 16.06v37.28c0 8.87 7.19 16.06 16.06 16.06h125.04c8.87 0 16.06-7.19 16.06-16.06v-37.28c0-8.87-7.19-16.06-16.06-16.06Z" fill="#00C650"/><path d="M81.21 213.93v7.25h-7.5v-7.25h7.5ZM108.12 193.95a13.749 13.749 0 0 1 4.85 8.13h-7.67a6.992 6.992 0 0 0-2.6-3.26 7.281 7.281 0 0 0-4.17-1.19 6.37 6.37 0 0 0-5.13 2.33 10.881 10.881 0 0 0 0 12.43 6.385 6.385 0 0 0 5.13 2.31 7.281 7.281 0 0 0 4.17-1.19 7.001 7.001 0 0 0 2.6-3.22h7.67a13.86 13.86 0 0 1-4.85 8.11 14.573 14.573 0 0 1-9.47 3 14.873 14.873 0 0 1-7.66-1.93 13 13 0 0 1-5.1-5.4 18.299 18.299 0 0 1 0-15.83 13 13 0 0 1 5.1-5.4 14.883 14.883 0 0 1 7.66-1.93 14.622 14.622 0 0 1 9.47 3.04ZM137.34 217.11a8.516 8.516 0 0 1-3.56 3.18 12.527 12.527 0 0 1-5.69 1.18 13.448 13.448 0 0 1-8.3-2.45 8.896 8.896 0 0 1-3.56-6.86h7.71a4 4 0 0 0 1.2 2.66 3.72 3.72 0 0 0 2.65 1 3.107 3.107 0 0 0 2.2-.76 2.679 2.679 0 0 0 .81-2 2.596 2.596 0 0 0-.75-1.9 5.577 5.577 0 0 0-1.84-1.25c-.73-.33-1.75-.71-3-1.17a37.087 37.087 0 0 1-4.63-1.88 8.552 8.552 0 0 1-3.09-2.71 8.795 8.795 0 0 1 .06-9.3 8.613 8.613 0 0 1 3.75-3 13.658 13.658 0 0 1 5.48-1 12.304 12.304 0 0 1 7.94 2.37 8.996 8.996 0 0 1 3.31 6.42h-7.83a4.003 4.003 0 0 0-1.08-2.35 3.217 3.217 0 0 0-2.35-.87 3 3 0 0 0-2 .68 2.466 2.466 0 0 0-.79 2 2.539 2.539 0 0 0 .7 1.8c.497.52 1.097.932 1.76 1.21.71.31 1.72.71 3 1.19a33.48 33.48 0 0 1 4.7 1.92 9 9 0 0 1 3.13 2.78 7.872 7.872 0 0 1 1.32 4.74 8.301 8.301 0 0 1-1.25 4.37ZM148.16 191.24l7.32 22.53 7.33-22.53h7.75l-10.42 29.94h-9.36l-10.37-29.94h7.75Z" fill="#fff"/><path d="M119.6 151.64H46.25c-6.35 0-11.51-6.32-11.51-14.1V84.32c0-7.77 5.16-14.09 11.51-14.09h73.35c6.35 0 11.51 6.32 11.51 14.09v53.19c0 7.78-5.16 14.13-11.51 14.13ZM46.25 77.47c-3.1 0-5.62 3.08-5.62 6.88v53.19c0 3.8 2.52 6.89 5.62 6.89h73.35c3.1 0 5.63-3.09 5.63-6.89V84.32c0-3.8-2.53-6.88-5.63-6.88l-73.35.03Z" fill="#00C650"/><path d="M128.17 119.58H37.68v7.21h90.49v-7.21ZM128.17 94.85H37.68v7.21h90.49v-7.21Z" fill="#00C650"/><path d="M105 73.83h-7.21V148H105V73.83ZM68.06 73.83h-7.21V148h7.21V73.83Z" fill="#00C650"/>
</svg>
