<svg viewBox="0 0 201 241" fill="none" xmlns="http://www.w3.org/2000/svg"><path opacity=".3" d="M140.38 49.25a20.642 20.642 0 0 1-20.62-20.62V0H27.63A26.91 26.91 0 0 0 .71 26.91v162.22a26.905 26.905 0 0 0 16.619 24.864 26.912 26.912 0 0 0 10.301 2.046h110.6a26.916 26.916 0 0 0 19.028-7.882 26.919 26.919 0 0 0 7.882-19.028V49.25h-24.76Z" fill="#5B5B5B"/><path d="M165.14 49.25h-24.76a20.642 20.642 0 0 1-20.62-20.62V0l45.38 49.25ZM131.31 83.73H28.07a3.74 3.74 0 0 1-3.74-3.74 3.741 3.741 0 0 1 3.74-3.75h103.24a3.751 3.751 0 0 1 3.75 3.75 3.752 3.752 0 0 1-3.75 3.74ZM131.31 106.1H28.07a3.741 3.741 0 0 1-3.458-5.174 3.738 3.738 0 0 1 3.458-2.316h103.24a3.751 3.751 0 0 1 3.75 3.75 3.75 3.75 0 0 1-3.75 3.74ZM131.31 128.47H28.07a3.732 3.732 0 0 1-2.648-1.099 3.738 3.738 0 0 1-1.092-2.651 3.742 3.742 0 0 1 3.74-3.74h103.24a3.75 3.75 0 0 1 3.75 3.74 3.752 3.752 0 0 1-3.75 3.75ZM90.59 150.84H28.07a3.732 3.732 0 0 1-2.648-1.099 3.738 3.738 0 0 1-1.092-2.651 3.742 3.742 0 0 1 3.74-3.74h62.52a3.741 3.741 0 0 1 3.458 5.174 3.736 3.736 0 0 1-3.458 2.316ZM184.66 170.61H59.62c-8.87 0-16.06 7.19-16.06 16.06v37.28c0 8.87 7.19 16.06 16.06 16.06h125.04c8.87 0 16.06-7.19 16.06-16.06v-37.28c0-8.87-7.19-16.06-16.06-16.06Z" fill="#5B5B5B"/><path d="M76.952 221.369a3.317 3.317 0 0 1-2.415-.994 3.318 3.318 0 0 1-.994-2.415c0-.928.331-1.723.994-2.386a3.317 3.317 0 0 1 2.415-.994c.909 0 1.704.331 2.386.994.682.663 1.023 1.458 1.023 2.386 0 .625-.161 1.198-.483 1.719a3.681 3.681 0 0 1-1.236 1.236 3.254 3.254 0 0 1-1.69.454Zm8.49-.369v-29.091h19.262v5.071H91.593v6.932h11.832v5.071H91.593V221h-6.15Zm29.549-29.091V221h-6.15v-29.091h6.15ZM120.052 221v-29.091h6.15v24.02h12.472V221h-18.622Zm22.695 0v-29.091h19.602v5.071h-13.451v6.932h12.443v5.071h-12.443v6.946h13.508V221h-19.659Z" fill="#fff"/>
</svg>
