<svg viewBox="0 0 201 241" fill="none" xmlns="http://www.w3.org/2000/svg"><path opacity=".3" d="M140.38 49.25a20.642 20.642 0 0 1-20.62-20.62V0H27.63A26.91 26.91 0 0 0 .71 26.91v162.22a26.905 26.905 0 0 0 16.619 24.864 26.912 26.912 0 0 0 10.301 2.046h110.6a26.916 26.916 0 0 0 19.028-7.882 26.919 26.919 0 0 0 7.882-19.028V49.25h-24.76Z" fill="#0072FF"/><path d="M165.14 49.25h-24.76a20.642 20.642 0 0 1-20.62-20.62V0l45.38 49.25ZM131.31 83.73H28.07a3.74 3.74 0 0 1-3.74-3.74 3.741 3.741 0 0 1 3.74-3.75h103.24a3.751 3.751 0 0 1 3.75 3.75 3.752 3.752 0 0 1-3.75 3.74ZM131.31 106.1H28.07a3.741 3.741 0 0 1-3.458-5.174 3.738 3.738 0 0 1 3.458-2.316h103.24a3.751 3.751 0 0 1 3.75 3.75 3.75 3.75 0 0 1-3.75 3.74ZM131.31 128.47H28.07a3.732 3.732 0 0 1-2.648-1.099 3.738 3.738 0 0 1-1.092-2.651 3.742 3.742 0 0 1 3.74-3.74h103.24a3.75 3.75 0 0 1 3.75 3.74 3.752 3.752 0 0 1-3.75 3.75ZM90.59 150.84H28.07a3.732 3.732 0 0 1-2.648-1.099 3.738 3.738 0 0 1-1.092-2.651 3.742 3.742 0 0 1 3.74-3.74h62.52a3.741 3.741 0 0 1 3.458 5.174 3.736 3.736 0 0 1-3.458 2.316ZM184.66 170.61H59.62c-8.87 0-16.06 7.19-16.06 16.06v37.28c0 8.87 7.19 16.06 16.06 16.06h125.04c8.87 0 16.06-7.19 16.06-16.06v-37.28c0-8.87-7.19-16.06-16.06-16.06Z" fill="#0072FF"/><path d="M76.93 213.38v7.27H69.4v-7.27h7.53ZM105.87 213.4a13.268 13.268 0 0 1-5.44 5.34 17.46 17.46 0 0 1-8.36 1.91H80.71v-30.07h11.36c2.904-.072 5.782.57 8.38 1.87a13.082 13.082 0 0 1 5.42 5.28 15.827 15.827 0 0 1 1.89 7.82 16.003 16.003 0 0 1-1.89 7.85Zm-7.82-1.51a8.362 8.362 0 0 0 2.36-6.34 8.343 8.343 0 0 0-2.36-6.33 9.181 9.181 0 0 0-6.62-2.26H88v17.18h3.44a9.216 9.216 0 0 0 6.61-2.25ZM133.9 192.09a14.484 14.484 0 0 1 5.47 5.49 15.756 15.756 0 0 1 2 7.93 15.765 15.765 0 0 1-2 7.95 14.532 14.532 0 0 1-5.49 5.51 15.203 15.203 0 0 1-7.68 2 15.223 15.223 0 0 1-7.68-2 14.437 14.437 0 0 1-5.48-5.51 15.671 15.671 0 0 1-2-7.95 15.574 15.574 0 0 1 2-7.93 14.517 14.517 0 0 1 5.48-5.49 15.223 15.223 0 0 1 7.68-2 15.278 15.278 0 0 1 7.7 2Zm-13.4 7.1a9.08 9.08 0 0 0-2.1 6.32 9.002 9.002 0 0 0 2.1 6.29 7.264 7.264 0 0 0 5.68 2.34 7.272 7.272 0 0 0 5.66-2.34 9 9 0 0 0 2.12-6.29 9.058 9.058 0 0 0-2.1-6.29 7.25 7.25 0 0 0-5.68-2.34 7.315 7.315 0 0 0-5.68 2.31ZM168.69 193.3a13.862 13.862 0 0 1 4.87 8.17h-7.7a7.092 7.092 0 0 0-2.61-3.28 7.364 7.364 0 0 0-4.19-1.19 6.394 6.394 0 0 0-5.15 2.34 9.468 9.468 0 0 0-2 6.26 9.39 9.39 0 0 0 2 6.23 6.432 6.432 0 0 0 5.15 2.31 7.291 7.291 0 0 0 4.19-1.19 7.065 7.065 0 0 0 2.61-3.23h7.7a13.927 13.927 0 0 1-4.87 8.15 14.68 14.68 0 0 1-9.5 3 14.995 14.995 0 0 1-7.7-1.94 13.216 13.216 0 0 1-5.13-5.42 17.108 17.108 0 0 1-1.8-8 17.135 17.135 0 0 1 1.8-8 13.216 13.216 0 0 1 5.13-5.42 14.995 14.995 0 0 1 7.7-1.94 14.728 14.728 0 0 1 9.5 3.15Z" fill="#fff"/></svg>
