<svg viewBox="0 0 201 241" fill="none" xmlns="http://www.w3.org/2000/svg"><path opacity=".3" d="M139.81 49.25a20.642 20.642 0 0 1-20.62-20.62V0H27.06A26.91 26.91 0 0 0 .14 26.91v162.22a26.905 26.905 0 0 0 16.619 24.864 26.912 26.912 0 0 0 10.301 2.046h110.6a26.907 26.907 0 0 0 26.91-26.91V49.25h-24.76Z" fill="#0072FF"/><path d="M164.57 49.25h-24.76a20.642 20.642 0 0 1-20.62-20.62V0l45.38 49.25ZM130.74 83.73H27.5a3.74 3.74 0 0 1-3.74-3.74 3.74 3.74 0 0 1 3.74-3.75h103.24a3.751 3.751 0 0 1 3.75 3.75 3.752 3.752 0 0 1-3.75 3.74ZM130.74 106.1H27.5a3.741 3.741 0 0 1-3.458-5.174A3.736 3.736 0 0 1 27.5 98.61h103.24a3.751 3.751 0 0 1 3.75 3.75 3.75 3.75 0 0 1-3.75 3.74ZM130.74 128.47H27.5a3.733 3.733 0 0 1-2.648-1.099 3.736 3.736 0 0 1-1.092-2.651 3.742 3.742 0 0 1 3.74-3.74h103.24a3.75 3.75 0 0 1 3.75 3.74 3.752 3.752 0 0 1-3.75 3.75ZM90 150.84H27.5a3.733 3.733 0 0 1-2.648-1.099 3.736 3.736 0 0 1-1.092-2.651 3.742 3.742 0 0 1 3.74-3.74H90a3.74 3.74 0 0 1 3.458 5.174A3.736 3.736 0 0 1 90 150.84ZM184.09 170.61H59.05c-8.87 0-16.06 7.19-16.06 16.06v37.28c0 8.87 7.19 16.06 16.06 16.06h125.04c8.87 0 16.06-7.19 16.06-16.06v-37.28c0-8.87-7.19-16.06-16.06-16.06Z" fill="#0072FF"/><path d="M61.32 213.38v7.27h-7.53v-7.27h7.53ZM90.26 213.4a13.337 13.337 0 0 1-5.44 5.34 17.459 17.459 0 0 1-8.36 1.91H65.1v-30.07h11.36a17.77 17.77 0 0 1 8.38 1.87 13.074 13.074 0 0 1 5.42 5.28 15.828 15.828 0 0 1 1.89 7.82 16 16 0 0 1-1.89 7.85Zm-7.82-1.51a8.374 8.374 0 0 0 2.36-6.34 8.341 8.341 0 0 0-2.36-6.33 9.177 9.177 0 0 0-6.62-2.26h-3.44v17.18h3.44a9.221 9.221 0 0 0 6.62-2.25ZM118.29 192.09a14.484 14.484 0 0 1 5.47 5.49 15.756 15.756 0 0 1 2 7.93c.051 2.78-.64 5.524-2 7.95a14.43 14.43 0 0 1-5.48 5.51 15.203 15.203 0 0 1-7.68 2 15.203 15.203 0 0 1-7.68-2 14.433 14.433 0 0 1-5.48-5.51 15.672 15.672 0 0 1-2-7.95 15.57 15.57 0 0 1 2-7.93 14.517 14.517 0 0 1 5.48-5.49 15.203 15.203 0 0 1 7.68-2 15.262 15.262 0 0 1 7.69 2Zm-13.4 7.1a9.08 9.08 0 0 0-2.1 6.32 9.002 9.002 0 0 0 2.1 6.29 7.264 7.264 0 0 0 5.68 2.34 7.292 7.292 0 0 0 5.66-2.34 9 9 0 0 0 2.12-6.29 9.058 9.058 0 0 0-2.1-6.29 7.25 7.25 0 0 0-5.68-2.34 7.312 7.312 0 0 0-5.68 2.31ZM153.08 193.3a13.862 13.862 0 0 1 4.87 8.17h-7.7a7.085 7.085 0 0 0-2.61-3.28 7.364 7.364 0 0 0-4.19-1.19 6.394 6.394 0 0 0-5.15 2.34 9.48 9.48 0 0 0-2 6.26 9.39 9.39 0 0 0 2 6.23 6.432 6.432 0 0 0 5.15 2.31 7.291 7.291 0 0 0 4.19-1.19 7.06 7.06 0 0 0 2.61-3.23h7.7a13.927 13.927 0 0 1-4.87 8.15 14.677 14.677 0 0 1-9.5 3 14.995 14.995 0 0 1-7.7-1.94 13.216 13.216 0 0 1-5.13-5.42 17.115 17.115 0 0 1-1.81-8 17.139 17.139 0 0 1 1.81-8 13.216 13.216 0 0 1 5.13-5.42 14.995 14.995 0 0 1 7.7-1.94 14.728 14.728 0 0 1 9.5 3.15ZM180.28 220.65l-6.34-9.36-5.44 9.36h-8.34l9.62-15.48-9.91-14.59h8.63l6.17 9.06 5.31-9.06h8.3l-9.49 15.14 10.12 14.93h-8.63Z" fill="#fff"/></svg>
