<svg viewBox="0 0 200 240" fill="none" xmlns="http://www.w3.org/2000/svg"><path opacity=".3" d="M139.67 49.24a20.641 20.641 0 0 1-20.62-20.62V0H26.91A26.91 26.91 0 0 0 0 26.9v162.22A26.91 26.91 0 0 0 26.91 216h110.6a26.91 26.91 0 0 0 26.92-26.91V49.24h-24.76Z" fill="#008CFF"/><path d="M164.43 49.24h-24.76a20.641 20.641 0 0 1-20.62-20.62V0l45.38 49.24ZM183.94 170.6H58.9c-8.87 0-16.06 7.19-16.06 16.06v37.28c0 8.87 7.19 16.06 16.06 16.06h125.04c8.87 0 16.06-7.19 16.06-16.06v-37.28c0-8.87-7.19-16.06-16.06-16.06Z" fill="#008CFF"/><path d="M68 213.37v7.27h-7.53v-7.27H68ZM97.82 190.57v30.07H90.5v-12.55H79.1v12.55h-7.27v-30.07h7.27v11.65h11.4v-11.65h7.32ZM124.44 190.57v5.78h-8.16v24.29H109v-24.29h-8.08v-5.78h23.52ZM161.32 190.78v29.86H154V202l-6.46 18.67h-6.3l-6.5-18.71v18.71h-7.28v-29.86h8.89l8.13 20.8 7.95-20.8 8.89-.03ZM173.61 215.07h9.7v5.57h-17v-30.07h7.28l.02 24.5Z" fill="#fff"/><path d="M41.64 114.19a1.93 1.93 0 0 1 .38-1.2c.303-.39.668-.728 1.08-1a15.067 15.067 0 0 1 1.93-.84l1.93-.8 7.72-3.25c1.073-.5 3.073-1.333 6-2.5l3.67-1.5 1.32-.47.23-.1a.436.436 0 0 1 .19 0c.148-.066.308-.101.47-.1a2.35 2.35 0 0 1 1.7.61 1.996 1.996 0 0 1 .61 1.42V107a2.381 2.381 0 0 1-.43 1.32 2.271 2.271 0 0 1-1.17.94l-15.77 6.45 15.77 6.45c.468.191.873.51 1.17.92.282.371.433.824.43 1.29v2.54a2.06 2.06 0 0 1-.61 1.44 2.267 2.267 0 0 1-1.7.63 1.304 1.304 0 0 1-.47-.09l-.42-.14-1.32-.47-3.67-1.51-6-2.49-7.72-3.25-1.93-.8c-.63-.25-1.27-.53-1.93-.85a2.535 2.535 0 0 1-1.46-2.12v-3.07ZM73.22 131.7a2.521 2.521 0 0 1-1.71-.59 1.782 1.782 0 0 1-.69-1.39c0-.38 1.13-3 3.39-8l3.3-7.25.7-1.51 5.32-11.81 1.88-4.09.38-.94c.146-.347.32-.681.52-1a2.86 2.86 0 0 1 2.54-1.37h2.35a2.55 2.55 0 0 1 1.72.59 1.778 1.778 0 0 1 .68 1.39 60.719 60.719 0 0 1-2.82 6.83l-.52 1.13-4 8.75-5.32 11.81-1.88 4.1-.38.94a6.13 6.13 0 0 1-.51 1.08 3.068 3.068 0 0 1-2.59 1.37l-2.36-.04ZM97.93 129a2.326 2.326 0 0 1-1.74-.63 2.008 2.008 0 0 1-.61-1.44v-2.54a2.21 2.21 0 0 1 .4-1.29c.3-.42.717-.74 1.2-.92l15.81-6.45-15.81-6.45a2.733 2.733 0 0 1-1.18-1 2.351 2.351 0 0 1-.42-1.3v-2.58a1.922 1.922 0 0 1 .63-1.42 2.42 2.42 0 0 1 1.72-.61.882.882 0 0 1 .43.1.757.757 0 0 1 .26 0l.21.1c-.07 0 .36.12 1.27.47l3.72 1.5c-.193-.087 1.807.747 6 2.5 2.287.94 4.907 2.053 7.86 3.34.19.06.44.16.76.28l1.08.43c.634.226 1.246.507 1.83.84a2.476 2.476 0 0 1 1.46 2.17v3.1a1.996 1.996 0 0 1-.4 1.18c-.277.39-.639.712-1.06.94-.56.28-1.24.58-2 .9l-2 .8-17.42 7.29c-.5.25-.8.41-.89.47l-.19.14-.92.08Z" fill="#008CFF"/></svg>
