<svg viewBox="0 0 201 240" fill="none" xmlns="http://www.w3.org/2000/svg"><path opacity=".3" d="M140.24 49.24a20.641 20.641 0 0 1-20.62-20.62V0H27.48A26.91 26.91 0 0 0 .57 26.91v162.22A26.91 26.91 0 0 0 27.48 216h110.61A26.911 26.911 0 0 0 165 189.12V49.24h-24.76Z" fill="#008CFF"/><path d="M165 49.24h-24.76a20.641 20.641 0 0 1-20.62-20.62V0L165 49.24ZM184.51 170.6H59.47c-8.87 0-16.06 7.19-16.06 16.06v37.28c0 8.87 7.19 16.06 16.06 16.06h125.04c8.87 0 16.06-7.19 16.06-16.06v-37.28c0-8.87-7.19-16.06-16.06-16.06Z" fill="#008CFF"/><path d="M79.63 213.37v7.27H72.1v-7.27h7.53ZM90.69 210.1v10.54h-7.28v-30.07h11.78c3.58 0 6.303.887 8.17 2.66a9.401 9.401 0 0 1 2.81 7.17 9.859 9.859 0 0 1-1.26 5 8.635 8.635 0 0 1-3.72 3.44 13.009 13.009 0 0 1-6 1.26h-4.5Zm8.08-9.7c0-2.667-1.46-4-4.38-4h-3.7v7.83h3.7c2.92.027 4.38-1.25 4.38-3.83ZM136.45 220.64h-7.27L117 202.18v18.46h-7.27v-30.07H117l12.17 18.63v-18.63h7.27l.01 30.07ZM164.86 193a11.74 11.74 0 0 1 4.55 7.49h-7.7a6 6 0 0 0-2.33-2.58 7.16 7.16 0 0 0-3.79-1 7.074 7.074 0 0 0-5.53 2.31 9.05 9.05 0 0 0-2.08 6.28c0 2.86.73 5.057 2.19 6.59a8.197 8.197 0 0 0 6.23 2.3 7.545 7.545 0 0 0 4.55-1.43 7.547 7.547 0 0 0 2.76-4.06h-9.18v-5.23h15.27V211a14.84 14.84 0 0 1-2.73 4.89 14.002 14.002 0 0 1-4.78 3.66 15.227 15.227 0 0 1-6.66 1.4 15.82 15.82 0 0 1-8-1.94 13.173 13.173 0 0 1-5.25-5.42 16.627 16.627 0 0 1-1.85-7.95 16.672 16.672 0 0 1 1.85-8 13.259 13.259 0 0 1 5.23-5.42 15.594 15.594 0 0 1 7.89-1.93c3.335-.164 6.628.79 9.36 2.71Z" fill="#fff"/><path d="M55.27 66.72H41.52v13.75h13.75V66.72ZM69.03 80.47H55.28v13.75h13.75V80.47ZM82.78 66.72H69.03v13.75h13.75V66.72ZM96.53 80.47H82.78v13.75h13.75V80.47ZM110.3 66.72H96.55v13.75h13.75V66.72ZM124.05 80.47H110.3v13.75h13.75V80.47ZM55.27 94.2H41.52v13.75h13.75V94.2ZM69.03 107.95H55.28v13.75h13.75v-13.75ZM82.78 94.2H69.03v13.75h13.75V94.2ZM96.53 107.95H82.78v13.75h13.75v-13.75ZM110.3 94.2H96.55v13.75h13.75V94.2ZM124.05 107.95H110.3v13.75h13.75v-13.75ZM55.27 121.81H41.52v13.75h13.75v-13.75ZM69.03 135.56H55.28v13.75h13.75v-13.75ZM82.78 121.81H69.03v13.75h13.75v-13.75ZM96.53 135.56H82.78v13.75h13.75v-13.75ZM110.3 121.81H96.55v13.75h13.75v-13.75ZM124.05 135.56H110.3v13.75h13.75v-13.75Z" fill="#008CFF"/></svg>
