<svg viewBox="0 0 201 240" fill="none" xmlns="http://www.w3.org/2000/svg"><path opacity=".3" d="M139.81 49.24a20.641 20.641 0 0 1-20.62-20.62V0H27.06A26.92 26.92 0 0 0 .14 26.92v162.21a26.918 26.918 0 0 0 26.92 26.92h110.6a26.905 26.905 0 0 0 24.864-16.619 26.91 26.91 0 0 0 2.046-10.301V49.25l-24.76-.01Z" fill="#FF9908"/><path d="M164.57 49.24h-24.76a20.641 20.641 0 0 1-20.62-20.62V0l45.38 49.24ZM184.09 170.6H59.05c-8.87 0-16.06 7.19-16.06 16.06v37.28c0 8.87 7.19 16.06 16.06 16.06h125.04c8.87 0 16.06-7.19 16.06-16.06v-37.28c0-8.87-7.19-16.06-16.06-16.06Z" fill="#FF9908"/><path d="M80.14 213.37v7.28h-7.53v-7.28h7.53ZM104.32 216.56a8.502 8.502 0 0 1-3.57 3.19 12.565 12.565 0 0 1-5.73 1.19 13.48 13.48 0 0 1-8.33-2.46 8.897 8.897 0 0 1-3.57-6.89h7.74a4.07 4.07 0 0 0 1.21 2.68 3.73 3.73 0 0 0 2.66 1 3.088 3.088 0 0 0 2.21-.76 2.67 2.67 0 0 0 .81-2 2.633 2.633 0 0 0-.75-1.92 5.633 5.633 0 0 0-1.85-1.25c-.74-.327-1.76-.717-3.06-1.17a37.592 37.592 0 0 1-4.66-1.89 8.548 8.548 0 0 1-3.1-2.73 7.83 7.83 0 0 1-1.3-4.7 7.879 7.879 0 0 1 1.36-4.63 8.64 8.64 0 0 1 3.77-3 13.754 13.754 0 0 1 5.5-1c2.862-.16 5.69.681 8 2.38A9.107 9.107 0 0 1 105 199h-7.87a4 4 0 0 0-1.09-2.36 3.17 3.17 0 0 0-2.36-.87 3 3 0 0 0-2.06.68 2.51 2.51 0 0 0-.79 2 2.51 2.51 0 0 0 .71 1.8 5.31 5.31 0 0 0 1.76 1.22c.71.31 1.73.71 3.06 1.19 1.621.519 3.2 1.165 4.72 1.93a9.073 9.073 0 0 1 3.15 2.79 8.003 8.003 0 0 1 1.32 4.76 8.259 8.259 0 0 1-1.23 4.42ZM115.19 190.58l7.35 22.62 7.36-22.62h7.79l-10.47 30.07h-9.4l-10.42-30.07h7.79ZM163.88 193a11.82 11.82 0 0 1 4.56 7.49h-7.7a5.872 5.872 0 0 0-2.34-2.57 7.14 7.14 0 0 0-3.79-1 7.071 7.071 0 0 0-5.53 2.32 9.003 9.003 0 0 0-2.08 6.27c0 2.86.73 5.057 2.19 6.59a8.21 8.21 0 0 0 6.23 2.3 7.515 7.515 0 0 0 4.55-1.43 7.571 7.571 0 0 0 2.77-4.06h-9.19v-5.23h15.27v7.19a14.78 14.78 0 0 1-2.72 4.89 14.172 14.172 0 0 1-4.79 3.66 15.212 15.212 0 0 1-6.65 1.4c-2.79.073-5.55-.593-8-1.93a13.21 13.21 0 0 1-5.25-5.43 16.718 16.718 0 0 1-1.85-8 16.714 16.714 0 0 1 1.85-7.95 13.284 13.284 0 0 1 5.23-5.43 15.594 15.594 0 0 1 7.89-1.93 14.999 14.999 0 0 1 9.35 2.85Z" fill="#fff"/><path d="M123.17 127.73h-2.49a38.108 38.108 0 0 0-38.07-38.06 38.101 38.101 0 0 0-38.06 38.06h-2.5a40.601 40.601 0 0 1 40.56-40.55 40.6 40.6 0 0 1 40.56 40.55Z" fill="#FF9908"/><path d="M140.24 87.18H24.98v2.49h115.26v-2.49ZM47.28 123.75h-7.97v7.97h7.97v-7.97ZM125.9 123.75h-7.97v7.97h7.97v-7.97Z" fill="#FF9908"/><path d="M86.59 84.31h-7.97v7.97h7.97v-7.97ZM24.85 92.29a3.99 3.99 0 1 0 0-7.98 3.99 3.99 0 0 0 0 7.98ZM139.86 92.29a3.99 3.99 0 1 0 0-7.98 3.99 3.99 0 0 0 0 7.98Z" fill="#FF9908"/></svg>
