<svg viewBox="0 0 201 241" fill="none" xmlns="http://www.w3.org/2000/svg"><path opacity=".3" d="M140.53 49.25a20.649 20.649 0 0 1-20.63-20.62V0H27.77A26.91 26.91 0 0 0 .86 26.91v162.22a26.908 26.908 0 0 0 26.91 26.91h110.6a26.907 26.907 0 0 0 26.91-26.91V49.25h-24.75Z" fill="#0072FF"/><path d="M165.28 49.25h-24.75a20.649 20.649 0 0 1-20.63-20.62V0l45.38 49.25ZM131.46 83.73H28.21a3.75 3.75 0 0 1-3.74-3.74 3.75 3.75 0 0 1 3.74-3.75h103.25a3.749 3.749 0 0 1 3.74 3.75 3.752 3.752 0 0 1-3.74 3.74ZM131.46 106.1H28.21a3.75 3.75 0 0 1-3.74-3.74 3.75 3.75 0 0 1 3.74-3.75h103.25a3.75 3.75 0 0 1 3.74 3.75 3.752 3.752 0 0 1-3.74 3.74ZM131.46 128.47H28.21a3.752 3.752 0 0 1-3.74-3.75 3.75 3.75 0 0 1 3.74-3.74h103.25a3.756 3.756 0 0 1 2.642 1.098 3.756 3.756 0 0 1 1.098 2.642 3.75 3.75 0 0 1-3.74 3.75ZM131.46 150.83H28.21a3.741 3.741 0 0 1-2.645-6.388 3.752 3.752 0 0 1 2.645-1.102h103.25a3.75 3.75 0 0 1 3.74 3.75 3.74 3.74 0 0 1-3.74 3.74ZM184.8 170.61H59.76c-8.87 0-16.06 7.19-16.06 16.06v37.28c0 8.87 7.19 16.06 16.06 16.06H184.8c8.87 0 16.06-7.19 16.06-16.06v-37.28c0-8.87-7.19-16.06-16.06-16.06Z" fill="#0072FF"/><path d="M86.42 213.38v7.27h-7.53v-7.27h7.53ZM111.81 190.58v5.79h-8.17v24.28h-7.31v-24.28h-8.09v-5.79h23.57ZM133.12 220.65l-6.34-9.36-5.45 9.36H113l9.61-15.48-9.91-14.59h8.63l6.17 9.06 5.32-9.06h8.29l-9.48 15.14 10.12 14.93h-8.63ZM166.16 190.58v5.79H158v24.28h-7.32v-24.28h-8.08v-5.79h23.56Z" fill="#fff"/></svg>
